<mxfile host="app.diagrams.net" modified="2022-08-23T06:11:03.072Z" agent="5.0 (Windows NT 10.0; Win64; x64) AppleWebKit/537.36 (KHTML, like Gecko) Chrome/104.0.0.0 Safari/537.36" etag="oy6jYKZ3EJTJYG2W4Rl6" version="20.2.6" type="github">
  <diagram name="Page-1" id="0783ab3e-0a74-02c8-0abd-f7b4e66b4bec">
    <mxGraphModel dx="785" dy="517" grid="1" gridSize="10" guides="1" tooltips="1" connect="1" arrows="1" fold="1" page="1" pageScale="1" pageWidth="850" pageHeight="1100" background="none" math="0" shadow="0">
      <root>
        <mxCell id="0" />
        <mxCell id="1" parent="0" />
        <mxCell id="aOkWjK9Gklf_of9XM7s5-1" value="Play Lvl" style="swimlane;html=1;childLayout=stackLayout;startSize=20;rounded=0;shadow=0;comic=0;labelBackgroundColor=none;strokeWidth=1;fontFamily=Verdana;fontSize=12;align=center;" vertex="1" parent="1">
          <mxGeometry x="430" width="500" height="500" as="geometry" />
        </mxCell>
        <mxCell id="aOkWjK9Gklf_of9XM7s5-2" value="Player" style="swimlane;html=1;startSize=20;" vertex="1" parent="aOkWjK9Gklf_of9XM7s5-1">
          <mxGeometry y="20" width="250" height="480" as="geometry" />
        </mxCell>
        <mxCell id="aOkWjK9Gklf_of9XM7s5-27" style="edgeStyle=orthogonalEdgeStyle;rounded=0;orthogonalLoop=1;jettySize=auto;html=1;exitX=0.5;exitY=1;exitDx=0;exitDy=0;entryX=0.5;entryY=0;entryDx=0;entryDy=0;" edge="1" parent="aOkWjK9Gklf_of9XM7s5-2" source="aOkWjK9Gklf_of9XM7s5-22" target="aOkWjK9Gklf_of9XM7s5-25">
          <mxGeometry relative="1" as="geometry" />
        </mxCell>
        <mxCell id="aOkWjK9Gklf_of9XM7s5-22" value="Search objective" style="rounded=0;whiteSpace=wrap;html=1;shadow=0;comic=0;labelBackgroundColor=none;strokeWidth=1;fontFamily=Verdana;fontSize=12;align=center;arcSize=50;" vertex="1" parent="aOkWjK9Gklf_of9XM7s5-2">
          <mxGeometry x="85" y="190" width="80" height="30" as="geometry" />
        </mxCell>
        <mxCell id="aOkWjK9Gklf_of9XM7s5-25" value="Take objective" style="rounded=0;whiteSpace=wrap;html=1;shadow=0;comic=0;labelBackgroundColor=none;strokeWidth=1;fontFamily=Verdana;fontSize=12;align=center;arcSize=50;" vertex="1" parent="aOkWjK9Gklf_of9XM7s5-2">
          <mxGeometry x="85" y="270" width="80" height="30" as="geometry" />
        </mxCell>
        <mxCell id="aOkWjK9Gklf_of9XM7s5-39" style="edgeStyle=orthogonalEdgeStyle;rounded=0;orthogonalLoop=1;jettySize=auto;html=1;exitX=0.5;exitY=1;exitDx=0;exitDy=0;entryX=0.5;entryY=0;entryDx=0;entryDy=0;" edge="1" parent="aOkWjK9Gklf_of9XM7s5-2" source="aOkWjK9Gklf_of9XM7s5-37" target="aOkWjK9Gklf_of9XM7s5-11">
          <mxGeometry relative="1" as="geometry" />
        </mxCell>
        <mxCell id="aOkWjK9Gklf_of9XM7s5-37" value="Go to exit" style="rounded=0;whiteSpace=wrap;html=1;shadow=0;comic=0;labelBackgroundColor=none;strokeWidth=1;fontFamily=Verdana;fontSize=12;align=center;arcSize=50;" vertex="1" parent="aOkWjK9Gklf_of9XM7s5-2">
          <mxGeometry x="90" y="350" width="70" height="30" as="geometry" />
        </mxCell>
        <mxCell id="aOkWjK9Gklf_of9XM7s5-11" value="" style="ellipse;html=1;shape=endState;fillColor=#000000;strokeColor=#ff0000;" vertex="1" parent="aOkWjK9Gklf_of9XM7s5-2">
          <mxGeometry x="110" y="430" width="30" height="30" as="geometry" />
        </mxCell>
        <mxCell id="aOkWjK9Gklf_of9XM7s5-6" value="System" style="swimlane;html=1;startSize=20;" vertex="1" parent="aOkWjK9Gklf_of9XM7s5-1">
          <mxGeometry x="250" y="20" width="250" height="480" as="geometry" />
        </mxCell>
        <mxCell id="aOkWjK9Gklf_of9XM7s5-21" style="edgeStyle=orthogonalEdgeStyle;rounded=0;orthogonalLoop=1;jettySize=auto;html=1;exitX=0.5;exitY=1;exitDx=0;exitDy=0;entryX=0.5;entryY=0;entryDx=0;entryDy=0;" edge="1" parent="aOkWjK9Gklf_of9XM7s5-6" source="aOkWjK9Gklf_of9XM7s5-4" target="aOkWjK9Gklf_of9XM7s5-5">
          <mxGeometry relative="1" as="geometry" />
        </mxCell>
        <mxCell id="aOkWjK9Gklf_of9XM7s5-4" value="" style="ellipse;html=1;shape=startState;fillColor=#000000;strokeColor=#ff0000;" vertex="1" parent="aOkWjK9Gklf_of9XM7s5-6">
          <mxGeometry x="110" y="40" width="30" height="30" as="geometry" />
        </mxCell>
        <mxCell id="aOkWjK9Gklf_of9XM7s5-18" style="edgeStyle=orthogonalEdgeStyle;rounded=0;orthogonalLoop=1;jettySize=auto;html=1;exitX=0.5;exitY=1;exitDx=0;exitDy=0;entryX=0.5;entryY=0;entryDx=0;entryDy=0;" edge="1" parent="aOkWjK9Gklf_of9XM7s5-6" source="aOkWjK9Gklf_of9XM7s5-5" target="aOkWjK9Gklf_of9XM7s5-17">
          <mxGeometry relative="1" as="geometry" />
        </mxCell>
        <mxCell id="aOkWjK9Gklf_of9XM7s5-5" value="Check number of objectives" style="rounded=0;whiteSpace=wrap;html=1;shadow=0;comic=0;labelBackgroundColor=none;strokeWidth=1;fontFamily=Verdana;fontSize=12;align=center;arcSize=50;" vertex="1" parent="aOkWjK9Gklf_of9XM7s5-6">
          <mxGeometry x="75" y="110" width="100" height="30" as="geometry" />
        </mxCell>
        <mxCell id="aOkWjK9Gklf_of9XM7s5-20" style="edgeStyle=orthogonalEdgeStyle;rounded=0;orthogonalLoop=1;jettySize=auto;html=1;exitX=0.5;exitY=1;exitDx=0;exitDy=0;entryX=0.5;entryY=0;entryDx=0;entryDy=0;" edge="1" parent="aOkWjK9Gklf_of9XM7s5-6" source="aOkWjK9Gklf_of9XM7s5-17" target="aOkWjK9Gklf_of9XM7s5-19">
          <mxGeometry relative="1" as="geometry" />
        </mxCell>
        <mxCell id="aOkWjK9Gklf_of9XM7s5-17" value="" style="rhombus;whiteSpace=wrap;html=1;strokeColor=default;strokeWidth=2;fillColor=#FFFFFF;" vertex="1" parent="aOkWjK9Gklf_of9XM7s5-6">
          <mxGeometry x="110" y="190" width="30" height="30" as="geometry" />
        </mxCell>
        <mxCell id="aOkWjK9Gklf_of9XM7s5-19" value="Unlock exit" style="rounded=0;whiteSpace=wrap;html=1;shadow=0;comic=0;labelBackgroundColor=none;strokeWidth=1;fontFamily=Verdana;fontSize=12;align=center;arcSize=50;" vertex="1" parent="aOkWjK9Gklf_of9XM7s5-6">
          <mxGeometry x="85" y="350" width="80" height="30" as="geometry" />
        </mxCell>
        <mxCell id="aOkWjK9Gklf_of9XM7s5-30" style="edgeStyle=orthogonalEdgeStyle;rounded=0;orthogonalLoop=1;jettySize=auto;html=1;exitX=1;exitY=0.5;exitDx=0;exitDy=0;entryX=1;entryY=0.5;entryDx=0;entryDy=0;" edge="1" parent="aOkWjK9Gklf_of9XM7s5-6" source="aOkWjK9Gklf_of9XM7s5-28" target="aOkWjK9Gklf_of9XM7s5-5">
          <mxGeometry relative="1" as="geometry">
            <Array as="points">
              <mxPoint x="210" y="285" />
              <mxPoint x="210" y="125" />
            </Array>
          </mxGeometry>
        </mxCell>
        <mxCell id="aOkWjK9Gklf_of9XM7s5-28" value="Decrease objective" style="rounded=0;whiteSpace=wrap;html=1;shadow=0;comic=0;labelBackgroundColor=none;strokeWidth=1;fontFamily=Verdana;fontSize=12;align=center;arcSize=50;" vertex="1" parent="aOkWjK9Gklf_of9XM7s5-6">
          <mxGeometry x="20" y="270" width="80" height="30" as="geometry" />
        </mxCell>
        <mxCell id="aOkWjK9Gklf_of9XM7s5-31" value="Obj. &amp;gt; 0" style="text;html=1;strokeColor=none;fillColor=none;align=center;verticalAlign=middle;whiteSpace=wrap;rounded=0;" vertex="1" parent="aOkWjK9Gklf_of9XM7s5-6">
          <mxGeometry x="60" y="185" width="60" height="20" as="geometry" />
        </mxCell>
        <mxCell id="aOkWjK9Gklf_of9XM7s5-32" value="Obj. = 0" style="text;html=1;strokeColor=none;fillColor=none;align=center;verticalAlign=middle;whiteSpace=wrap;rounded=0;" vertex="1" parent="aOkWjK9Gklf_of9XM7s5-6">
          <mxGeometry x="120" y="220" width="60" height="20" as="geometry" />
        </mxCell>
        <mxCell id="aOkWjK9Gklf_of9XM7s5-26" style="edgeStyle=orthogonalEdgeStyle;rounded=0;orthogonalLoop=1;jettySize=auto;html=1;exitX=0;exitY=0.5;exitDx=0;exitDy=0;entryX=1;entryY=0.5;entryDx=0;entryDy=0;" edge="1" parent="aOkWjK9Gklf_of9XM7s5-1" source="aOkWjK9Gklf_of9XM7s5-17" target="aOkWjK9Gklf_of9XM7s5-22">
          <mxGeometry relative="1" as="geometry" />
        </mxCell>
        <mxCell id="aOkWjK9Gklf_of9XM7s5-29" style="edgeStyle=orthogonalEdgeStyle;rounded=0;orthogonalLoop=1;jettySize=auto;html=1;exitX=1;exitY=0.5;exitDx=0;exitDy=0;entryX=0;entryY=0.5;entryDx=0;entryDy=0;" edge="1" parent="aOkWjK9Gklf_of9XM7s5-1" source="aOkWjK9Gklf_of9XM7s5-25" target="aOkWjK9Gklf_of9XM7s5-28">
          <mxGeometry relative="1" as="geometry" />
        </mxCell>
        <mxCell id="aOkWjK9Gklf_of9XM7s5-38" style="edgeStyle=orthogonalEdgeStyle;rounded=0;orthogonalLoop=1;jettySize=auto;html=1;exitX=0;exitY=0.5;exitDx=0;exitDy=0;entryX=1;entryY=0.5;entryDx=0;entryDy=0;" edge="1" parent="aOkWjK9Gklf_of9XM7s5-1" source="aOkWjK9Gklf_of9XM7s5-19" target="aOkWjK9Gklf_of9XM7s5-37">
          <mxGeometry relative="1" as="geometry" />
        </mxCell>
        <mxCell id="aOkWjK9Gklf_of9XM7s5-13" value="" style="whiteSpace=wrap;html=1;rounded=0;shadow=0;comic=0;labelBackgroundColor=none;strokeWidth=1;fillColor=#000000;fontFamily=Verdana;fontSize=12;align=center;rotation=0;" vertex="1" parent="1">
          <mxGeometry x="250" y="230" width="147" height="10" as="geometry" />
        </mxCell>
        <mxCell id="aOkWjK9Gklf_of9XM7s5-7" style="edgeStyle=orthogonalEdgeStyle;rounded=0;orthogonalLoop=1;jettySize=auto;html=1;exitX=0.5;exitY=1;exitDx=0;exitDy=0;entryX=0.5;entryY=0;entryDx=0;entryDy=0;" edge="1" parent="1" source="aOkWjK9Gklf_of9XM7s5-8" target="aOkWjK9Gklf_of9XM7s5-10">
          <mxGeometry relative="1" as="geometry" />
        </mxCell>
        <mxCell id="aOkWjK9Gklf_of9XM7s5-8" value="Take Information" style="rounded=0;whiteSpace=wrap;html=1;shadow=0;comic=0;labelBackgroundColor=none;strokeWidth=1;fontFamily=Verdana;fontSize=12;align=center;arcSize=50;" vertex="1" parent="1">
          <mxGeometry x="310" y="360" width="80" height="30" as="geometry" />
        </mxCell>
        <mxCell id="aOkWjK9Gklf_of9XM7s5-10" value="Load Lvl" style="rounded=0;whiteSpace=wrap;html=1;shadow=0;comic=0;labelBackgroundColor=none;strokeWidth=1;fontFamily=Verdana;fontSize=12;align=center;arcSize=50;" vertex="1" parent="1">
          <mxGeometry x="315" y="440" width="70" height="30" as="geometry" />
        </mxCell>
      </root>
    </mxGraphModel>
  </diagram>
</mxfile>
